<svg xmlns="http://www.w3.org/2000/svg" width="1200" height="320" viewBox="0 0 1200 320" fill="none">
  <defs>
    <linearGradient id="bg" x1="0" y1="0" x2="1" y2="1">
      <stop stop-color="#f6f8fb"/>
      <stop offset="1" stop-color="#e9eef3"/>
    </linearGradient>
    <linearGradient id="glow" x1="0" y1="0" x2="1" y2="0">
      <stop stop-color="#0891b2" stop-opacity="0"/>
      <stop offset="0.5" stop-color="#0891b2" stop-opacity="0.35"/>
      <stop offset="1" stop-color="#0891b2" stop-opacity="0"/>
    </linearGradient>
    <pattern id="grid" width="40" height="40" patternUnits="userSpaceOnUse">
      <path d="M 40 0 L 0 0 0 40" stroke="#cbd5e1" stroke-width="1" opacity="0.6"/>
    </pattern>
  </defs>
  <rect width="1200" height="320" fill="url(#bg)"/>
  <rect width="1200" height="320" fill="url(#grid)"/>
  <path d="M0 220 C 220 160, 420 260, 700 200 C 900 160, 1000 180, 1200 120" stroke="url(#glow)" stroke-width="3" fill="none"/>
  <path d="M0 250 C 260 220, 520 280, 840 220 C 980 190, 1080 200, 1200 160" stroke="#0ea5a4" stroke-width="1.5" opacity="0.35" fill="none"/>
  <g opacity="0.8">
    <line x1="80" y1="60" x2="1120" y2="60" stroke="#cbd5e1" stroke-width="1"/>
    <line x1="80" y1="260" x2="1120" y2="260" stroke="#cbd5e1" stroke-width="1"/>
    <line x1="200" y1="40" x2="200" y2="280" stroke="#cbd5e1" stroke-width="1"/>
    <line x1="600" y1="40" x2="600" y2="280" stroke="#cbd5e1" stroke-width="1"/>
    <line x1="1000" y1="40" x2="1000" y2="280" stroke="#cbd5e1" stroke-width="1"/>
  </g>
  <circle cx="980" cy="90" r="28" stroke="#0891b2" stroke-width="2" opacity="0.5" fill="none"/>
  <circle cx="980" cy="90" r="5" fill="#0891b2" opacity="0.8"/>
  <text x="80" y="150" fill="#0f172a" font-size="36" font-family="monospace" font-weight="600">Omar Faruk</text>
  <text x="80" y="190" fill="#334155" font-size="16" font-family="monospace">Full-Stack Web Developer</text>
</svg>
